<svg width="256" height="256" viewBox="0 0 256 256" fill="none" xmlns="http://www.w3.org/2000/svg">
  <defs>
    <radialGradient id="coinFill" cx="0" cy="0" r="1" gradientUnits="userSpaceOnUse" gradientTransform="translate(102 82) rotate(45) scale(168)">
      <stop offset="0" stop-color="#FFF59D"/>
      <stop offset="0.45" stop-color="#FDE047"/>
      <stop offset="1" stop-color="#EAB308"/>
    </radialGradient>
    <radialGradient id="coinCore" cx="0" cy="0" r="1" gradientUnits="userSpaceOnUse" gradientTransform="translate(128 128) rotate(90) scale(88)">
      <stop offset="0" stop-color="#FEF9C3" stop-opacity="0.85"/>
      <stop offset="1" stop-color="#FACC15" stop-opacity="0.05"/>
    </radialGradient>
    <linearGradient id="coinRim" x1="64" y1="58" x2="194" y2="196" gradientUnits="userSpaceOnUse">
      <stop offset="0" stop-color="#FCD34D"/>
      <stop offset="1" stop-color="#CA8A04"/>
    </linearGradient>
    <filter id="coinShadow" x="22" y="22" width="212" height="212" filterUnits="userSpaceOnUse" color-interpolation-filters="sRGB">
      <feFlood flood-opacity="0" result="BackgroundImageFix"/>
      <feColorMatrix in="SourceAlpha" type="matrix" values="0 0 0 0 0 0 0 0 0 0 0 0 0 0 0 0 0 0 127 0" result="hardAlpha"/>
      <feOffset dy="6"/>
      <feGaussianBlur stdDeviation="6"/>
      <feComposite in2="hardAlpha" operator="out"/>
      <feColorMatrix type="matrix" values="0 0 0 0 0.02 0 0 0 0 0.08 0 0 0 0 0.2 0 0 0 0.35 0"/>
      <feBlend mode="normal" in2="BackgroundImageFix" result="effect1_dropShadow_1_1"/>
      <feBlend mode="normal" in="SourceGraphic" in2="effect1_dropShadow_1_1" result="shape"/>
    </filter>
  </defs>

  <ellipse cx="128" cy="205" rx="64" ry="14" fill="#0F172A" fill-opacity="0.22"/>

  <g filter="url(#coinShadow)">
    <circle cx="128" cy="122" r="74" fill="url(#coinFill)"/>
    <circle cx="128" cy="122" r="68" fill="url(#coinCore)"/>
    <circle cx="128" cy="122" r="74" stroke="#475569" stroke-width="4"/>
    <circle cx="128" cy="122" r="66" stroke="url(#coinRim)" stroke-width="2.5"/>
  </g>

  <path d="M91 102C91 90.5 100.9 83 115.3 83C126 83 133.9 87.5 139.1 95.2" stroke="#334155" stroke-width="7" stroke-linecap="round"/>
  <path d="M165 138C165 150.1 154.3 159 139 159C128.1 159 119.5 154.3 113.8 146.3" stroke="#334155" stroke-width="7" stroke-linecap="round"/>
  <path d="M114.3 122H141.5C153.8 122 161.2 115.4 161.2 106C161.2 94.8 152.1 87 137.8 87H134" stroke="#334155" stroke-width="7" stroke-linecap="round"/>
  <path d="M141.7 122H114.5C102.3 122 94.8 128.7 94.8 138.1C94.8 149.3 103.9 157 118.2 157H122" stroke="#334155" stroke-width="7" stroke-linecap="round"/>
  <path d="M128 77V89" stroke="#334155" stroke-width="7" stroke-linecap="round"/>
  <path d="M128 155V167" stroke="#334155" stroke-width="7" stroke-linecap="round"/>

  <path d="M86 74L83.7 79.8L78 82.2L83.7 84.5L86 90.3L88.3 84.5L94 82.2L88.3 79.8L86 74Z" fill="#F8FAFC" fill-opacity="0.65"/>
  <path d="M177 96L174.8 101L170 103L174.8 105L177 110L179.2 105L184 103L179.2 101L177 96Z" fill="#F8FAFC" fill-opacity="0.52"/>

  <path d="M90 86C101 74 121 66.2 141 67.5" stroke="#FFFDE7" stroke-width="6" stroke-linecap="round" stroke-opacity="0.55"/>
</svg>
